Coordinates
version=1
nRows=24
nColumns=24
inDegrees=yes

Units are S.I. units (second, meters, Newtons, ...)
Angles are in degrees.

endheader
time	pelvis_tilt	pelvis_list	pelvis_rotation	pelvis_tx	pelvis_ty	pelvis_tz	hip_flexion_r	hip_adduction_r	hip_rotation_r	knee_angle_r	ankle_angle_r	subtalar_angle_r	mtp_angle_r	hip_flexion_l	hip_adduction_l	hip_rotation_l	knee_angle_l	ankle_angle_l	subtalar_angle_l	mtp_angle_l	lumbar_extension	lumbar_bending	lumbar_rotation
      1.39566667	      1.94544067	      9.19563297	     -5.44627581	      0.27405290	      1.01000446	      0.28133071	     15.03899746	    -13.27639930	     -0.28627561	    -71.68560412	     -2.95862259	    -11.53930530	      5.35576370	      6.39278567	     14.45552149	      2.89769788	    -12.59381190	      1.88802565	    -19.67536045	     -4.25499502	    -14.30223483	     -4.42154936	     -1.67914588
      1.39983333	      1.96538389	      8.98716339	     -5.46147657	      0.27892346	      1.01102690	      0.28106490	     15.56008200	    -12.96428417	     -0.29771705	    -71.36622337	     -2.41663769	    -11.85605825	      5.20023551	      5.79291787	     14.28172579	      3.03425847	    -12.10073242	      1.86645468	    -19.70392235	     -4.31060629	    -14.34273516	     -4.12648036	     -1.88350711
      1.40400000	      1.99476614	      8.79631194	     -5.47010667	      0.28378697	      1.01200630	      0.28078473	     16.06032306	    -12.67534931	     -0.31991683	    -71.00089348	     -1.87939042	    -12.16196729	      5.03399475	      5.18184730	     14.12762810	      3.17509322	    -11.59833396	      1.83307227	    -19.74509920	     -4.37165447	    -14.38857890	     -3.83871345	     -2.11368082
      1.40816667	      2.02569339	      8.63078446	     -5.46579884	      0.28862565	      1.01290323	      0.28048539	     16.55528166	    -12.42052273	     -0.35704531	    -70.60747746	     -1.32246176	    -12.46575462	      4.70291339	      4.57190430	     14.00317103	      3.35204465	    -11.09365819	      1.75645958	    -19.83614400	     -4.49422013	    -14.44305793	     -3.59015935	     -2.39930077
      1.41233333	      2.03985592	      8.41809335	     -5.47555100	      0.29348704	      1.01379740	      0.28022037	     17.03778631	    -12.09517291	     -0.37903896	    -70.12804182	     -0.83375950	    -12.72846397	      4.54743254	      3.98863858	     13.81708726	      3.43842784	    -10.61689766	      1.77249596	    -19.81686980	     -4.55214369	    -14.46365784	     -3.28445167	     -2.54241959
      1.41650000	      2.06024703	      8.23088473	     -5.47409234	      0.29830473	      1.01463048	      0.27994911	     17.50893511	    -11.79893329	     -0.40538915	    -69.61510183	     -0.32822779	    -12.99277725	      4.39241034	      3.40363634	     13.65894291	      3.55132791	    -10.13896632	      1.74933427	    -19.82073334	     -4.61182082	    -14.51371323	     -2.99263695	     -2.75219449
      1.42066667	      2.07014979	      8.04184369	     -5.45944220	      0.30314651	      1.01541020	      0.27966517	     17.96736184	    -11.50416386	     -0.45330442	    -69.04345469	      0.16097164	    -13.24850491	      4.20844296	      2.83070126	     13.49729714	      3.66609421	     -9.66738380	      1.73353712	    -19.83658715	     -4.68205470	    -14.52426381	     -2.71111907	     -2.97788497
      1.42483333	      2.03683474	      7.87082378	     -5.44459709	      0.30794290	      1.01605947	      0.27940026	     18.47443805	    -11.21691893	     -0.48251769	    -68.44658995	      0.69551970	    -13.46094451	      4.14306844	      2.33493533	     13.34480432	      3.71762685	     -9.24582721	      1.72747266	    -19.77992841	     -4.70896830	    -14.51251896	     -2.47295217	     -3.07326953
      1.42900000	      2.03919410	      7.69570707	     -5.43408095	      0.31275169	      1.01671937	      0.27913992	     18.92188882	    -10.92816187	     -0.51357135	    -67.78994238	      1.18265157	    -13.65961298	      4.06860983	      1.78977879	     13.19094082	      3.78909780	     -8.80169160	      1.72567942	    -19.74191553	     -4.73896527	    -14.53420704	     -2.20472867	     -3.23518002
      1.43316667	      2.09845360	      7.51910196	     -5.41817513	      0.31756302	      1.01742421	      0.27886864	     19.28432316	    -10.64892400	     -0.55891722	    -67.06990154	      1.58179230	    -13.83772998	      3.88527871	      1.16026433	     13.04402540	      3.93458010	     -8.31245711	      1.71938903	    -19.77636805	     -4.80866120	    -14.61707414	     -1.92989014	     -3.56579501
      1.43733333	      2.05521155	      7.37801802	     -5.39710782	      0.32234886	      1.01790890	      0.27860963	     19.76414531	    -10.39119003	     -0.58244675	    -66.33713823	      2.08071820	    -13.98308040	      3.82007691	      0.68723756	     12.91809552	      3.97778908	     -7.90232592	      1.71287220	    -19.71573558	     -4.83521265	    -14.58835201	     -1.71682194	     -3.65831061
      1.44150000	      2.10013667	      7.22155343	     -5.37585205	      0.32714846	      1.01848090	      0.27834876	     20.11729662	    -10.13306719	     -0.62598076	    -65.53282997	      2.47557778	    -14.08759621	      3.61360426	      0.09038841	     12.78668355	      4.09838160	     -7.43938091	      1.71140476	    -19.73871860	     -4.91287077	    -14.65156542	     -1.46943557	     -3.96932726
      1.44566667	      2.07847978	      7.07536238	     -5.34752854	      0.33193028	      1.01890869	      0.27811218	     20.53238159	     -9.86963494	     -0.65521735	    -64.69300884	      2.93488184	    -14.17830820	      3.52566890	     -0.39614933	     12.65308069	      4.12880210	     -7.04930482	      1.70512867	    -19.68586473	     -4.94727272	    -14.64127377	     -1.27000896	     -4.07612912
      1.44983333	      2.06262480	      6.95136134	     -5.32280325	      0.33670573	      1.01926814	      0.27787122	     20.93698544	     -9.63639458	     -0.68311069	    -63.82275593	      3.35335266	    -14.23655529	      3.43056158	     -0.89421386	     12.54419397	      4.18220422	     -6.64033599	      1.71492391	    -19.64041802	     -4.98319735	    -14.64618503	     -1.06210157	     -4.24191933
      1.45400000	      2.12380595	      6.83120502	     -5.30181771	      0.34149821	      1.01969689	      0.27763089	     21.23593972	     -9.42110167	     -0.71842620	    -62.89486643	      3.70617517	    -14.26965230	      3.22148469	     -1.49681889	     12.44795322	      4.29182772	     -6.18969319	      1.72975099	    -19.63927896	     -5.05858272	    -14.72699270	     -0.85738942	     -4.53488485
      1.45816667	      2.12229251	      6.71731767	     -5.26347255	      0.34626198	      1.01998841	      0.27739930	     21.58729300	     -9.20141938	     -0.75176508	    -61.92851856	      4.09806465	    -14.30097331	      2.91916109	     -2.00830832	     12.34872592	      4.38731794	     -5.78291227	      1.70686716	    -19.63851476	     -5.16747375	    -14.75462862	     -0.67608912	     -4.76296386
      1.46233333	      2.06275286	      6.63339388	     -5.24379118	      0.35105118	      1.02012080	      0.27718838	     22.00526338	     -9.00486390	     -0.75917870	    -60.94257958	      4.45524092	    -14.30177280	      2.86475160	     -2.44217671	     12.27442577	      4.40693018	     -5.39831575	      1.74673182	    -19.56162642	     -5.18710627	    -14.69637330	     -0.52447110	     -4.81436753
      1.46650000	      2.10689565	      6.52957785	     -5.21399857	      0.35583488	      1.02036631	      0.27696743	     22.27145391	     -8.80770271	     -0.79534282	    -59.88072148	      4.75996985	    -14.25305049	      2.68807155	     -3.00037883	     12.18875032	      4.48226991	     -4.99638756	      1.77163961	    -19.55101164	     -5.24962529	    -14.75457192	     -0.35267426	     -5.06992542
      1.47066667	      2.09489149	      6.43037877	     -5.17845617	      0.36062265	      1.02051409	      0.27678052	     22.57867321	     -8.60043156	     -0.81836541	    -58.77346631	      5.08329142	    -14.22962628	      2.59756585	     -3.47842846	     12.09786417	      4.52162612	     -4.63410829	      1.77302157	    -19.49667365	     -5.28251869	    -14.75737269	     -0.19750812	     -5.18303345
      1.47483333	      2.10601561	      6.35936620	     -5.15086909	      0.36540394	      1.02059637	      0.27659274	     22.85902501	     -8.43117754	     -0.83630569	    -57.64372165	      5.36740685	    -14.18446716	      2.49957598	     -3.99084315	     12.04027922	      4.58664420	     -4.24483390	      1.79278133	    -19.45974973	     -5.31712517	    -14.78456232	     -0.06816081	     -5.35300976
      1.47900000	      2.13450400	      6.30349126	     -5.12766334	      0.37018627	      1.02064031	      0.27641351	     23.11040329	     -8.28270615	     -0.85413480	    -56.47974784	      5.59314413	    -14.15036450	      2.32818572	     -4.53512729	     12.00073092	      4.69147372	     -3.82540168	      1.81084429	    -19.47181463	     -5.37724135	    -14.83614553	      0.05291962	     -5.59017702
      1.48316667	      2.10524188	      6.23841182	     -5.09502981	      0.37497502	      1.02059170	      0.27625254	     23.39232441	     -8.11257916	     -0.86677906	    -55.25526616	      5.83909752	    -14.09734825	      2.24521126	     -4.98744065	     11.94253059	      4.73710741	     -3.47193865	      1.81801023	    -19.42627720	     -5.40698496	    -14.81312969	      0.17091755	     -5.69433121
      1.48733333	      2.11409205	      6.18989138	     -5.07162770	      0.37976477	      1.02052868	      0.27610507	     23.62166834	     -7.96598626	     -0.87595211	    -53.99580913	      6.03281770	    -14.05134156	      2.15144026	     -5.49366956	     11.90494588	      4.80839674	     -3.08893719	      1.83601869	    -19.39680264	     -5.43979858	    -14.83428208	      0.27291791	     -5.85525160
      1.49150000	      2.14105898	      6.14994785	     -5.05465544	      0.38455192	      1.02042927	      0.27597875	     23.81771591	     -7.83117702	     -0.88766171	    -52.70067023	      6.18086885	    -14.02358817	      2.00087747	     -6.03226971	     11.87761705	      4.90584281	     -2.67454509	      1.84730824	    -19.41199412	     -5.49194171	    -14.89010104	      0.36302009	     -6.06703194
